<svg width="11" height="16" viewBox="0 0 11 16" fill="none" xmlns="http://www.w3.org/2000/svg">
<g clip-path="url(#clip0_2059_1627)">
<path d="M7.74474 2.92705C8.0441 2.00574 9.34751 2.00574 9.64686 2.92705L10.2674 4.83688C10.4013 5.2489 10.7852 5.52786 11.2185 5.52786H13.2266C14.1953 5.52786 14.5981 6.76748 13.8144 7.33688L12.1898 8.51722C11.8393 8.77187 11.6926 9.22323 11.8265 9.63525L12.447 11.5451C12.7464 12.4664 11.6919 13.2325 10.9082 12.6631L9.28359 11.4828C8.9331 11.2281 8.4585 11.2281 8.10802 11.4828L6.48342 12.6631C5.6997 13.2325 4.64522 12.4664 4.94458 11.5451L5.56512 9.63526C5.69899 9.22323 5.55233 8.77186 5.20185 8.51722L3.57725 7.33688C2.79353 6.76748 3.19631 5.52786 4.16503 5.52786H6.17315C6.60637 5.52786 6.99033 5.2489 7.1242 4.83688L7.74474 2.92705Z" fill="#FFE44B"/>
</g>
<defs>
<clipPath id="clip0_2059_1627">
<rect width="9.56522" height="15.3043" fill="white" transform="translate(0.695801)"/>
</clipPath>
</defs>
</svg>
