<svg width="11" height="11" viewBox="0 0 11 11" fill="none" xmlns="http://www.w3.org/2000/svg">
<path d="M4.39692 0.92705C4.69627 0.00573945 5.99968 0.00573921 6.29903 0.92705L6.84148 2.59654C6.97536 3.00856 7.35931 3.28752 7.79254 3.28752H9.54794C10.5167 3.28752 10.9194 4.52714 10.1357 5.09654L8.71557 6.12834C8.36509 6.38298 8.21843 6.83435 8.3523 7.24637L8.89475 8.91586C9.19411 9.83717 8.13963 10.6033 7.35591 10.0339L5.93576 9.0021C5.58527 8.74745 5.11068 8.74745 4.76019 9.0021L3.34004 10.0339C2.55632 10.6033 1.50184 9.83717 1.8012 8.91586L2.34365 7.24637C2.47752 6.83435 2.33086 6.38298 1.98037 6.12834L0.560223 5.09654C-0.22349 4.52714 0.179285 3.28752 1.14801 3.28752H2.90341C3.33664 3.28752 3.72059 3.00856 3.85447 2.59654L4.39692 0.92705Z" fill="#232323"/>
</svg>
