<svg width="38" height="31" viewBox="0 0 38 31" fill="none" xmlns="http://www.w3.org/2000/svg">
<path d="M9.375 4.5C9.375 2.44922 11.0156 0.75 13.125 0.75H33.75C35.8008 0.75 37.5 2.44922 37.5 4.5V21.375C37.5 23.4844 35.8008 25.125 33.75 25.125H19.6875C19.043 23.6602 17.9297 22.3711 16.6406 21.375H22.5V19.5C22.5 18.5039 23.3203 17.625 24.375 17.625H28.125C29.1211 17.625 30 18.5039 30 19.5V21.375H33.75V4.5H13.125V7.42969C12.0117 6.78516 10.7227 6.375 9.375 6.375V4.5ZM9.375 8.25C11.3672 8.25 13.1836 9.36328 14.2383 11.0625C15.2344 12.8203 15.2344 14.9883 14.2383 16.6875C13.1836 18.4453 11.3672 19.5 9.375 19.5C7.32422 19.5 5.50781 18.4453 4.45312 16.6875C3.45703 14.9883 3.45703 12.8203 4.45312 11.0625C5.50781 9.36328 7.32422 8.25 9.375 8.25ZM7.79297 21.375H10.8984C15.2344 21.375 18.75 24.8906 18.75 29.2266C18.75 30.0469 18.0469 30.75 17.168 30.75H1.52344C0.644531 30.75 0 30.1055 0 29.2266C0 24.8906 3.45703 21.375 7.79297 21.375Z" fill="white"/>
</svg>
