<svg width="24" height="19" viewBox="0 0 24 19" fill="none" xmlns="http://www.w3.org/2000/svg">
<path d="M5.18359 6.4375C5.18359 5.66406 5.81641 5.03125 6.58984 5.03125C7.39844 5.03125 7.99609 5.66406 7.99609 6.4375C7.99609 7.24609 7.39844 7.84375 6.58984 7.84375C5.81641 7.84375 5.18359 7.24609 5.18359 6.4375ZM8.27734 1.09375L8.48828 2.07812C8.83984 2.21875 9.15625 2.39453 9.4375 2.60547L10.3867 2.32422C10.5977 2.25391 10.8086 2.32422 10.9492 2.46484C11.5117 3.09766 11.9336 3.83594 12.2148 4.67969C12.2852 4.85547 12.2148 5.06641 12.0742 5.20703L11.3359 5.875C11.3711 6.08594 11.3711 6.29688 11.3711 6.47266C11.3711 6.64844 11.3711 6.85938 11.3711 7.03516L12.0742 7.70312C12.2148 7.84375 12.2852 8.05469 12.2148 8.23047C11.9336 9.07422 11.5117 9.8125 10.9492 10.4453C10.8086 10.5859 10.5977 10.6562 10.3867 10.5859L9.50781 10.3047C9.19141 10.5508 8.83984 10.7617 8.48828 10.9023L8.27734 11.8164C8.20703 12.0273 8.06641 12.168 7.89062 12.2383C7.46875 12.3086 7.04688 12.3438 6.58984 12.3438C6.16797 12.3438 5.74609 12.3086 5.32422 12.2383C5.14844 12.168 5.00781 12.0273 4.9375 11.8164L4.72656 10.9023C4.375 10.7617 4.02344 10.5508 3.70703 10.3047L2.82812 10.5859C2.61719 10.6562 2.40625 10.5859 2.26562 10.4453C1.70312 9.8125 1.28125 9.07422 1 8.23047C0.929688 8.05469 1 7.84375 1.14062 7.70312L1.84375 7.03516C1.84375 6.85938 1.84375 6.64844 1.84375 6.47266C1.84375 6.29688 1.84375 6.08594 1.87891 5.875L1.14062 5.20703C1 5.06641 0.929688 4.85547 1 4.67969C1.28125 3.83594 1.70312 3.09766 2.26562 2.46484C2.40625 2.32422 2.61719 2.25391 2.82812 2.32422L3.77734 2.60547C4.05859 2.39453 4.375 2.21875 4.72656 2.07812L4.9375 1.09375C5.00781 0.882812 5.14844 0.742188 5.32422 0.671875C5.74609 0.601562 6.16797 0.53125 6.58984 0.53125C7.04688 0.53125 7.46875 0.601562 7.89062 0.671875C8.06641 0.742188 8.20703 0.882812 8.27734 1.09375ZM3.21484 6.47266C3.21484 6.61328 3.25 6.75391 3.25 6.85938L3.32031 7.5625L2.54688 8.30078C2.65234 8.58203 2.79297 8.82812 2.96875 9.07422L3.98828 8.75781L4.58594 9.17969C4.79688 9.35547 5.04297 9.49609 5.28906 9.60156L5.92188 9.88281L6.16797 10.9375C6.30859 10.9375 6.44922 10.9375 6.58984 10.9375C6.76562 10.9375 6.90625 10.9375 7.04688 10.9375L7.29297 9.88281L7.92578 9.60156C8.17188 9.49609 8.41797 9.35547 8.62891 9.17969L9.22656 8.75781L10.2461 9.07422C10.4219 8.82812 10.5625 8.58203 10.668 8.30078L9.89453 7.5625L9.96484 6.85938C9.96484 6.75391 9.96484 6.61328 9.96484 6.47266C9.96484 6.33203 9.96484 6.19141 9.96484 6.05078L9.85938 5.34766L10.668 4.60938C10.5625 4.32812 10.4219 4.08203 10.2461 3.83594L9.15625 4.15234L8.59375 3.73047C8.38281 3.58984 8.17188 3.44922 7.92578 3.34375L7.29297 3.0625L7.04688 1.97266C6.90625 1.97266 6.76562 1.9375 6.58984 1.9375C6.44922 1.9375 6.30859 1.97266 6.16797 1.97266L5.92188 3.0625L5.28906 3.34375C5.04297 3.44922 4.83203 3.58984 4.62109 3.73047L4.05859 4.15234L2.96875 3.83594C2.79297 4.08203 2.65234 4.32812 2.54688 4.60938L3.35547 5.34766L3.25 6.05078C3.25 6.19141 3.21484 6.33203 3.21484 6.47266ZM17.3125 11.2188C18.0859 11.2188 18.7188 11.8516 18.7188 12.625C18.7188 13.4336 18.0859 14.0312 17.3125 14.0312C16.5039 14.0312 15.9062 13.4336 15.9062 12.625C15.9062 11.8516 16.5039 11.2188 17.3125 11.2188ZM21.4258 8.86328L21.1445 9.8125C21.3555 10.0938 21.5312 10.4102 21.6719 10.7617L22.6562 10.9727C22.8672 11.0078 23.0078 11.1836 23.0781 11.3594C23.1484 11.7812 23.2188 12.2031 23.2188 12.625C23.2188 13.082 23.1484 13.5039 23.0781 13.8906C23.0078 14.1016 22.8672 14.2422 22.6562 14.3125L21.6719 14.5234C21.5312 14.875 21.3555 15.1914 21.1445 15.4727L21.4258 16.4219C21.4961 16.6328 21.4258 16.8438 21.2852 16.9844C20.6523 17.5469 19.9141 17.9688 19.0703 18.25C18.8945 18.3203 18.6836 18.25 18.543 18.1094L17.8398 17.3711C17.6641 17.4062 17.4531 17.4062 17.2773 17.4062C17.1016 17.4062 16.8906 17.4062 16.7148 17.4062L16.0469 18.1094C15.9062 18.25 15.6953 18.3203 15.5195 18.25C14.6758 17.9688 13.9375 17.5469 13.3047 16.9844C13.1641 16.8438 13.0938 16.6328 13.1641 16.4219L13.4453 15.543C13.1992 15.2266 12.9883 14.875 12.8477 14.5234L11.9336 14.3125C11.7227 14.2422 11.582 14.1016 11.5117 13.8906C11.4414 13.5039 11.3711 13.082 11.3711 12.625C11.3711 12.2031 11.4414 11.7812 11.5117 11.3594C11.582 11.1836 11.7227 11.0078 11.9336 10.9727L12.8477 10.7617C12.9883 10.4102 13.1992 10.0586 13.4453 9.74219L13.1641 8.86328C13.0938 8.65234 13.1641 8.44141 13.3047 8.30078C13.9375 7.73828 14.6758 7.31641 15.5195 7.03516C15.6953 6.96484 15.9062 7.03516 16.0469 7.17578L16.7148 7.87891C16.8906 7.87891 17.1016 7.84375 17.2773 7.84375C17.4531 7.84375 17.6641 7.87891 17.8398 7.87891L18.543 7.17578C18.6836 7.03516 18.8945 6.96484 19.0703 7.03516C19.9141 7.31641 20.6523 7.73828 21.2852 8.30078C21.4258 8.44141 21.4961 8.65234 21.4258 8.86328ZM17.2773 9.25C17.1367 9.25 16.9961 9.28516 16.8906 9.28516L16.1875 9.35547L15.4492 8.58203C15.168 8.6875 14.9219 8.82812 14.6758 9.00391L14.9922 10.0234L14.5352 10.6211C14.3945 10.832 14.2539 11.0781 14.1484 11.3242L13.8672 11.957L12.8125 12.2031C12.8125 12.3438 12.8125 12.4844 12.8125 12.625C12.8125 12.8008 12.8125 12.9414 12.8125 13.082L13.8672 13.3281L14.1484 13.9609C14.2539 14.207 14.3945 14.4531 14.5352 14.6641L14.9922 15.2266L14.6758 16.2812C14.9219 16.457 15.168 16.5977 15.4492 16.7031L16.1875 15.9297L16.8906 16C16.9961 16 17.1367 16 17.2773 16C17.418 16 17.5586 16 17.6992 16L18.4023 15.8945L19.1406 16.7031C19.4219 16.5977 19.668 16.457 19.9141 16.2812L19.5977 15.1914L20.0195 14.6289C20.1602 14.418 20.3008 14.207 20.4062 13.9609L20.6875 13.3281L21.7773 13.082C21.7773 12.9414 21.8125 12.8008 21.8125 12.625C21.8125 12.4844 21.7773 12.3438 21.7773 12.2031L20.6875 11.957L20.4062 11.2891C20.3008 11.0781 20.1602 10.832 20.0195 10.6562L19.5977 10.0938L19.9141 9.00391C19.668 8.82812 19.4219 8.6875 19.1406 8.58203L18.4023 9.39062L17.6992 9.28516C17.5586 9.28516 17.418 9.25 17.2773 9.25Z" fill="white"/>
</svg>
