<svg width="11" height="11" viewBox="0 0 11 11" fill="none" xmlns="http://www.w3.org/2000/svg">
<path d="M4.70112 0.92705C5.00047 0.00573945 6.30388 0.00573921 6.60323 0.92705L7.14568 2.59654C7.27955 3.00856 7.66351 3.28752 8.09674 3.28752H9.85214C10.8209 3.28752 11.2236 4.52714 10.4399 5.09654L9.01977 6.12834C8.66929 6.38298 8.52263 6.83435 8.6565 7.24637L9.19895 8.91586C9.4983 9.83717 8.44382 10.6033 7.66011 10.0339L6.23996 9.0021C5.88947 8.74745 5.41488 8.74745 5.06439 9.0021L3.64424 10.0339C2.86052 10.6033 1.80604 9.83717 2.1054 8.91586L2.64785 7.24637C2.78172 6.83435 2.63506 6.38298 2.28457 6.12834L0.864422 5.09654C0.0807087 4.52714 0.483484 3.28752 1.45221 3.28752H3.20761C3.64084 3.28752 4.02479 3.00856 4.15867 2.59654L4.70112 0.92705Z" fill="#FFE44B"/>
</svg>
