<svg width="30" height="31" viewBox="0 0 30 31" fill="none" xmlns="http://www.w3.org/2000/svg">
<path d="M18.75 29.3438C18.75 29.9297 18.3984 30.457 17.8711 30.6328C17.4023 30.8672 16.8164 30.8086 16.4062 30.3984L11.7188 26.1797C11.3672 25.9453 11.25 25.5352 11.25 25.125C11.25 24.7734 11.4258 24.3633 11.7188 24.1289L16.4062 19.9102C16.8164 19.5 17.4023 19.4414 17.8711 19.6758C18.3984 19.8516 18.75 20.3789 18.75 20.9062V23.25H19.6875C21.7383 23.25 23.4375 21.6094 23.4375 19.5V9.77344C21.7383 9.01172 20.625 7.37109 20.625 5.4375C20.625 2.85938 22.6758 0.75 25.3125 0.75C27.8906 0.75 30 2.85938 30 5.4375C30 7.37109 28.8281 9.01172 27.1875 9.77344V19.5C27.1875 23.6602 23.7891 27 19.6875 27H18.75V29.3438ZM26.7188 5.4375C26.7188 4.67578 26.0742 4.03125 25.3125 4.03125C24.4922 4.03125 23.9062 4.67578 23.9062 5.4375C23.9062 6.25781 24.4922 6.84375 25.3125 6.84375C26.0742 6.84375 26.7188 6.25781 26.7188 5.4375ZM11.25 2.15625C11.25 1.62891 11.543 1.10156 12.0703 0.925781C12.5391 0.691406 13.1836 0.75 13.5938 1.16016L18.2812 5.37891C18.5742 5.61328 18.6914 6.02344 18.6914 6.375C18.6914 6.78516 18.5742 7.19531 18.2812 7.42969L13.5938 11.6484C13.1836 12.0586 12.5391 12.1172 12.0703 11.8828C11.543 11.707 11.25 11.1797 11.25 10.5938V8.25H10.3125C8.20312 8.25 6.5625 9.94922 6.5625 12V21.7852C8.20312 22.4883 9.375 24.1875 9.375 26.0625C9.375 28.6992 7.26562 30.75 4.6875 30.75C2.05078 30.75 0 28.6992 0 26.0625C0 24.1875 1.11328 22.4883 2.8125 21.7852V12C2.8125 7.89844 6.15234 4.5 10.3125 4.5H11.25V2.15625ZM3.28125 26.0625C3.28125 26.8828 3.86719 27.4688 4.6875 27.4688C5.44922 27.4688 6.09375 26.8828 6.09375 26.0625C6.09375 25.3008 5.44922 24.6562 4.6875 24.6562C3.86719 24.6562 3.28125 25.3008 3.28125 26.0625Z" fill="white"/>
</svg>
