<svg width="18" height="19" viewBox="0 0 18 19" fill="none" xmlns="http://www.w3.org/2000/svg">
<path d="M9 0.25C13.957 0.25 18 4.29297 18 9.25C18 14.2422 13.957 18.25 9 18.25C7.13672 18.25 5.44922 17.7227 4.00781 16.7734C3.62109 16.5273 3.51562 16 3.76172 15.6133C4.04297 15.2266 4.57031 15.1211 4.95703 15.3672C6.11719 16.1406 7.48828 16.5625 9 16.5625C13.0078 16.5625 16.3125 13.293 16.3125 9.25C16.3125 5.24219 13.0078 1.9375 9 1.9375C6.39844 1.9375 4.11328 3.30859 2.8125 5.3125H4.78125C5.23828 5.3125 5.625 5.69922 5.625 6.15625C5.625 6.64844 5.23828 7 4.78125 7H0.84375C0.351562 7 0 6.64844 0 6.15625V2.21875C0 1.76172 0.351562 1.375 0.84375 1.375C1.30078 1.375 1.6875 1.76172 1.6875 2.21875V4.01172C3.30469 1.76172 5.97656 0.25 9 0.25ZM9 4.75C9.45703 4.75 9.84375 5.13672 9.84375 5.59375V8.93359L12.0938 11.1836C12.4453 11.5352 12.4453 12.0625 12.0938 12.3789C11.7773 12.7305 11.25 12.7305 10.9336 12.3789L8.40234 9.84766C8.22656 9.70703 8.15625 9.49609 8.15625 9.25V5.59375C8.15625 5.13672 8.50781 4.75 9 4.75Z" fill="#C4C4C4"/>
</svg>
