<svg width="18" height="16" viewBox="0 0 18 16" fill="none" xmlns="http://www.w3.org/2000/svg">
<path d="M3.09375 0.9375C3.55078 0.9375 3.9375 1.32422 3.9375 1.78125V3.46875C3.9375 3.96094 3.55078 4.3125 3.09375 4.3125H1.40625C0.914062 4.3125 0.5625 3.96094 0.5625 3.46875V1.78125C0.5625 1.32422 0.914062 0.9375 1.40625 0.9375H3.09375ZM17.1562 1.78125C17.6133 1.78125 18 2.16797 18 2.625C18 3.11719 17.6133 3.46875 17.1562 3.46875H6.46875C5.97656 3.46875 5.625 3.11719 5.625 2.625C5.625 2.16797 5.97656 1.78125 6.46875 1.78125H17.1562ZM17.1562 7.40625C17.6133 7.40625 18 7.79297 18 8.25C18 8.74219 17.6133 9.09375 17.1562 9.09375H6.46875C5.97656 9.09375 5.625 8.74219 5.625 8.25C5.625 7.79297 5.97656 7.40625 6.46875 7.40625H17.1562ZM17.1562 13.0312C17.6133 13.0312 18 13.418 18 13.875C18 14.3672 17.6133 14.7188 17.1562 14.7188H6.46875C5.97656 14.7188 5.625 14.3672 5.625 13.875C5.625 13.418 5.97656 13.0312 6.46875 13.0312H17.1562ZM0.5625 7.40625C0.5625 6.94922 0.914062 6.5625 1.40625 6.5625H3.09375C3.55078 6.5625 3.9375 6.94922 3.9375 7.40625V9.09375C3.9375 9.58594 3.55078 9.9375 3.09375 9.9375H1.40625C0.914062 9.9375 0.5625 9.58594 0.5625 9.09375V7.40625ZM3.09375 12.1875C3.55078 12.1875 3.9375 12.5742 3.9375 13.0312V14.7188C3.9375 15.2109 3.55078 15.5625 3.09375 15.5625H1.40625C0.914062 15.5625 0.5625 15.2109 0.5625 14.7188V13.0312C0.5625 12.5742 0.914062 12.1875 1.40625 12.1875H3.09375Z" fill="white"/>
</svg>
