<svg width="41" height="33" viewBox="0 0 41 33" fill="none" xmlns="http://www.w3.org/2000/svg">
<path d="M12.9531 3.70312V3.625L7.32812 9.875C7.01562 10.2656 6.54688 10.5 6 10.5C5.53125 10.5781 4.98438 10.3438 4.67188 9.95312L1.54688 6.82812C0.765625 6.125 0.765625 4.95312 1.54688 4.17188C2.25 3.46875 3.42188 3.46875 4.20312 4.17188L5.92188 5.96875L10.2188 1.125C10.9219 0.421875 12.0938 0.34375 12.875 1.04688C13.5781 1.75 13.6562 2.92188 12.9531 3.70312ZM12.9531 16.2031V16.125L7.32812 22.375C7.01562 22.7656 6.54688 23 6 23C5.53125 23.0781 4.98438 22.8438 4.67188 22.4531L1.54688 19.3281C0.765625 18.625 0.765625 17.4531 1.54688 16.6719C2.25 15.9688 3.42188 15.9688 4.20312 16.6719L5.92188 18.4688L10.2188 13.625C10.9219 12.9219 12.0938 12.8438 12.875 13.5469C13.5781 14.25 13.6562 15.4219 12.9531 16.2031ZM17.875 7.375C16.7812 7.375 16 6.59375 16 5.5C16 4.48438 16.7812 3.625 17.875 3.625H39.125C40.1406 3.625 41 4.48438 41 5.5C41 6.59375 40.1406 7.375 39.125 7.375H17.875ZM16 18C16 16.9844 16.7812 16.125 17.875 16.125H39.125C40.1406 16.125 41 16.9844 41 18C41 19.0938 40.1406 19.875 39.125 19.875H17.875C16.7812 19.875 16 19.0938 16 18ZM13.5 30.5C13.5 29.4844 14.2812 28.625 15.375 28.625H39.125C40.1406 28.625 41 29.4844 41 30.5C41 31.5938 40.1406 32.375 39.125 32.375H15.375C14.2812 32.375 13.5 31.5938 13.5 30.5ZM8.5 30.5C8.5 31.9062 7.32812 33 6 33C4.59375 33 3.5 31.9062 3.5 30.5C3.5 29.1719 4.59375 28 6 28C7.32812 28 8.5 29.1719 8.5 30.5Z" fill="#5546FF"/>
</svg>
