<svg width="32" height="19" viewBox="0 0 32 19" fill="none" xmlns="http://www.w3.org/2000/svg">
<path id="Vector (Stroke)" fill-rule="evenodd" clip-rule="evenodd" d="M2.39058 3.00063C3.48 2.2056 4.94947 1.7833 6.45912 1.7833L2.39058 3.00063ZM6.45912 1.7833C7.96877 1.7833 9.43826 2.20561 10.5277 3.00065L6.45912 1.7833ZM11.5786 1.56006L32 16.4633L30.8081 17.1471C26.1394 19.8252 19.3958 19.6086 15.0577 16.4427L1.33964 6.43148C0.501902 5.82008 0 4.94898 0 3.99577C0 3.04255 0.501882 2.17147 1.33962 1.56007C2.78739 0.503508 4.64335 0 6.45912 0C8.27488 0 10.1308 0.503493 11.5786 1.56006ZM10.5277 3.00065L28.6479 16.2246L10.5277 3.00065ZM28.6479 16.2246C24.6609 17.8797 19.4753 17.459 16.1086 15.0021L2.39058 4.9909C2.39057 4.9909 2.39059 4.99091 2.39058 4.9909C1.93017 4.65488 1.78296 4.28425 1.78296 3.99577C1.78296 3.70728 1.93017 3.33665 2.39058 3.00063" fill="white"/>
</svg>
