<svg width="19" height="19" viewBox="0 0 19 19" fill="none" xmlns="http://www.w3.org/2000/svg">
<path d="M16.7148 0.25C17.9805 0.25 18.9648 1.26953 18.9648 2.5V12.5898C18.9648 13.7852 17.9453 14.8047 16.7148 14.8047H11.6523L7.25781 18.0742C6.97656 18.2852 6.58984 18.1094 6.58984 17.7578V14.8047H3.21484C1.94922 14.8047 0.964844 13.8203 0.964844 12.5898V2.5C0.964844 1.26953 1.94922 0.25 3.21484 0.25H16.7148ZM17.3125 12.625V2.5C17.3125 2.21875 17.0312 1.9375 16.75 1.9375H3.25C2.93359 1.9375 2.6875 2.21875 2.6875 2.5V12.625C2.6875 12.9414 2.93359 13.1875 3.25 13.1875H8.3125V15.2969L11.125 13.1875H16.75C17.0312 13.1875 17.3125 12.9414 17.3125 12.625Z" fill="#C4C4C4"/>
</svg>
