<svg width="200" height="152" viewBox="0 0 200 152" fill="none" xmlns="http://www.w3.org/2000/svg">
<path d="M97.55 144.6L7.68999 91.3497C4.82999 89.7404 2.37499 87.0935 5.16499 85.3639L95.35 33.2268C96.705 32.3846 98.76 31.8332 100.135 32.6353L194.465 87.5447C197.325 89.2091 197.84 93.8613 194.965 95.5307L109.4 144.514C107.603 145.561 105.564 146.119 103.486 146.134C101.408 146.149 99.3621 145.62 97.55 144.6Z" fill="url(#paint0_linear_723_1865)"/>
<path d="M175.395 62.3434C175.715 62.5389 175.395 74.9215 175.395 74.9215L125.07 46.236V33.6179" stroke="#6F4F64" stroke-width="1.015" stroke-miterlimit="10"/>
<path d="M28.7999 61.3809C28.4799 61.5764 28.7999 69.4973 28.7999 69.4973L79.1249 40.8068V33.6279" stroke="#6F4F64" stroke-width="1.015" stroke-miterlimit="10"/>
<path d="M48.7949 74.9265L102.205 108.886L156.07 77.8592" stroke="#F2F2F2" stroke-width="3.045" stroke-miterlimit="10"/>
<path d="M85.0901 73.5429L101.54 83.3386L119.275 72.9012L102.185 63.311L85.0901 73.5429Z" fill="white"/>
<path d="M119.275 72.9012V110.716L102.185 120.582L101.54 83.3386L119.275 72.9012Z" fill="white"/>
<path opacity="0.11" d="M85.0901 73.5429L101.54 83.3386L119.275 72.9012L102.185 63.311L85.0901 73.5429Z" fill="#606060"/>
<path opacity="0.52" d="M119.275 72.9012V110.716L102.185 120.582L101.54 83.3386L119.275 72.9012Z" fill="#606060"/>
<path d="M85.0901 73.5428V111.187L102.185 120.582L101.54 83.3386L85.0901 73.5428Z" fill="white"/>
<path d="M163.675 58.764V39.0121L187.605 53.1442V73.1418L163.675 58.764Z" fill="white"/>
<path d="M137.55 71.312V51.5601L161.48 65.6922V85.6948L137.55 71.312Z" fill="#D55A5F"/>
<path d="M115.81 31.6678V11.9158L139.74 26.048V46.0456L115.81 31.6678Z" fill="#393939"/>
<path d="M177.307 60.2323C178.904 59.6075 179.432 57.1291 178.486 54.6968C177.539 52.2644 175.477 50.7991 173.88 51.4239C172.282 52.0488 171.754 54.5271 172.7 56.9595C173.647 59.3919 175.709 60.8572 177.307 60.2323Z" fill="white"/>
<path d="M124.001 29.9543C125.599 29.3295 126.127 26.8511 125.18 24.4187C124.234 21.9864 122.172 20.5211 120.574 21.1459C118.977 21.7707 118.449 24.2491 119.395 26.6815C120.341 29.1139 122.404 30.5792 124.001 29.9543Z" fill="white"/>
<path d="M133.276 36.2788C134.238 35.9025 134.556 34.4097 133.986 32.9446C133.416 31.4795 132.174 30.5969 131.212 30.9732C130.25 31.3495 129.932 32.8423 130.502 34.3074C131.072 35.7725 132.314 36.6551 133.276 36.2788Z" fill="white"/>
<path d="M141.96 57.9569L155.21 77.388" stroke="white" stroke-width="1.015" stroke-miterlimit="10"/>
<path d="M144.447 71.4865C145.705 70.9945 146.121 69.0441 145.377 67.1302C144.632 65.2163 143.009 64.0636 141.75 64.5556C140.492 65.0477 140.076 66.9981 140.821 68.912C141.566 70.8259 143.189 71.9786 144.447 71.4865Z" fill="white"/>
<path d="M156.558 73.5692C157.816 73.0772 158.232 71.1268 157.488 69.2129C156.743 67.299 155.12 66.1463 153.862 66.6383C152.604 67.1304 152.187 69.0808 152.932 70.9947C153.677 72.9086 155.3 74.0613 156.558 73.5692Z" fill="white"/>
<path d="M97.305 69.8883C96.485 69.8883 94.805 67.8028 94.235 67.1862C93.292 66.1385 92.5101 64.9558 91.915 63.6769C88.6 56.5181 93.04 46.8427 101.3 46.2712C101.885 46.2375 102.471 46.2375 103.055 46.2712C108.5 46.4917 112.615 51.926 113.11 57.0194C113.321 59.597 112.87 62.1858 111.8 64.5392C111.284 65.6584 110.59 66.6862 109.745 67.5822C109.155 68.2039 107.395 70.1189 106.485 70.0888L97.305 69.8883Z" fill="#E99A53"/>
<path d="M99.925 70.4247L98.875 56.0519C98.875 56.0519 96.95 52.5427 95.6 55.0192C94.25 57.4957 97.05 59.15 102.76 58.9044C108.47 58.6588 109.505 55.9566 108.26 54.8939C107.015 53.8311 104.94 55.2899 104.835 56.0268C104.73 56.7638 103.55 70.3996 103.55 70.3996" stroke="#F2F2F2" stroke-width="0.5075" stroke-miterlimit="10"/>
<path d="M108.89 68.2791C106.945 69.3769 104.835 69.6677 102.485 69.6677C100.135 69.6677 97.4451 69.6677 95.3351 68.4846C95.261 68.5963 95.2195 68.7265 95.2151 68.8606V70.6804C95.2151 70.8771 95.2931 71.0659 95.4318 71.205C95.5706 71.3441 95.7588 71.4223 95.9551 71.4223H108.455C108.651 71.4223 108.84 71.3441 108.978 71.205C109.117 71.0659 109.195 70.8771 109.195 70.6804V68.8606C109.193 68.7465 109.164 68.6345 109.111 68.5336C109.058 68.4326 108.983 68.3454 108.89 68.2791Z" fill="#CCCCCC"/>
<path d="M108.595 71.4273H95.8101C95.4815 71.4273 95.2151 71.6944 95.2151 72.0239V74.1344C95.2151 74.4639 95.4815 74.731 95.8101 74.731H108.595C108.924 74.731 109.19 74.4639 109.19 74.1344V72.0239C109.19 71.6944 108.924 71.4273 108.595 71.4273Z" fill="#CCCCCC"/>
<path d="M95.9551 74.731C95.9551 74.731 96.5951 77.1223 102.2 77.0321C107.805 76.9418 109.2 73.9891 109.2 73.9891" fill="#CCCCCC"/>
<path d="M108.59 70.2342C106.641 71.3342 104.467 71.9713 102.234 72.0965C100.001 72.2216 97.7688 71.8315 95.7099 70.9561C95.3449 70.8007 95.0249 71.3371 95.3949 71.4975C97.5495 72.424 99.8878 72.8407 102.229 72.7155C104.57 72.5904 106.851 71.9266 108.895 70.7756C109.255 70.555 108.945 70.0537 108.59 70.2342Z" fill="#AFA7A1"/>
<path d="M108.035 73.5128C106.205 74.5057 104.172 75.067 102.093 75.1539C100.013 75.2407 97.9416 74.8509 96.0351 74.0141C95.6701 73.8537 95.3551 74.3951 95.7201 74.5555C97.7237 75.4446 99.9038 75.8617 102.093 75.7748C104.282 75.6879 106.423 75.0993 108.35 74.0542C108.7 73.8637 108.385 73.3223 108.035 73.5128Z" fill="#AFA7A1"/>
<path d="M37.65 56.9643V37.2173L13.72 51.3445V71.3471L37.65 56.9643Z" fill="#5D5D5D"/>
<path d="M63.7751 65.9228V46.1709L39.8401 60.3031V80.3007L63.7751 65.9228Z" fill="#D55A5F"/>
<path d="M85.515 29.873V10.1211L61.585 24.2482V44.2508L85.515 29.873Z" fill="white"/>
<path d="M61.585 35.9991C62.1217 33.8435 63.2411 31.8781 64.82 30.3192C65.945 29.2564 67.355 28.3139 68.97 28.6197C70.82 28.9556 71.205 30.8656 72.825 31.397C75.71 32.3445 76.825 27.5469 77.225 25.6569C77.675 23.5363 78.83 19.4957 81.225 18.6385C85.225 17.1646 85.52 22.8596 85.52 22.8596" stroke="#F2F2F2" stroke-width="0.5075" stroke-miterlimit="10"/>
<path d="M61.585 40.5762C62.1217 38.4206 63.2411 36.4552 64.82 34.8962C65.945 33.8335 67.355 32.891 68.97 33.1968C70.82 33.5327 71.205 35.4427 72.825 35.9741C75.71 36.9216 76.825 32.124 77.225 30.234C77.675 28.1134 78.83 24.0728 81.225 23.2155C85.235 21.7266 85.5 27.4416 85.5 27.4416" stroke="#F2F2F2" stroke-width="0.5075" stroke-miterlimit="10"/>
<path d="M61.585 31.2466C62.1217 29.091 63.2411 27.1256 64.82 25.5667C65.945 24.5039 67.355 23.5614 68.97 23.8672C70.82 24.2031 71.205 26.1131 72.825 26.6445C75.71 27.592 76.825 22.7944 77.225 20.9044C77.675 18.7838 78.83 14.7432 81.225 13.886C85.225 12.4121 85.52 18.1071 85.52 18.1071" stroke="#F2F2F2" stroke-width="0.5075" stroke-miterlimit="10"/>
<path d="M39.8401 64.0229L63.7751 49.8907" stroke="#F2F2F2" stroke-width="0.5075" stroke-miterlimit="10"/>
<path d="M39.8401 68.2239L63.7751 54.0917" stroke="#F2F2F2" stroke-width="3.045" stroke-miterlimit="10"/>
<path d="M39.8401 72.3848L63.7751 58.2527" stroke="#F2F2F2" stroke-width="0.5075" stroke-miterlimit="10"/>
<path d="M39.8401 76.5859L63.7751 62.4537" stroke="#F2F2F2" stroke-width="3.045" stroke-miterlimit="10"/>
<path d="M13.72 66.6147L27.445 49.7654L37.65 53.4852" stroke="#F2F2F2" stroke-width="3.045" stroke-miterlimit="10"/>
<path d="M13.72 71.1315L27.445 54.2822L37.65 57.997" stroke="#F2F2F2" stroke-width="0.5075" stroke-miterlimit="10"/>
<path d="M13.01 62.7043L26.735 45.855L38.36 50.0912" stroke="#F2F2F2" stroke-width="0.5075" stroke-miterlimit="10"/>
<path style="mix-blend-mode:multiply" opacity="0.63" d="M85.0901 111.162L62.7351 123.94L81.2351 134.909L102.17 120.551C100.6 119.559 86.6851 112.164 85.0901 111.162Z" fill="url(#paint1_linear_723_1865)"/>
<defs>
<linearGradient id="paint0_linear_723_1865" x1="100.41" y1="32.2448" x2="100.41" y2="146.134" gradientUnits="userSpaceOnUse">
<stop stop-color="#232323"/>
<stop offset="1" stop-color="#232323" stop-opacity="0"/>
</linearGradient>
<linearGradient id="paint1_linear_723_1865" x1="75.1551" y1="134.097" x2="86.8897" y2="115.19" gradientUnits="userSpaceOnUse">
<stop stop-color="white" stop-opacity="0"/>
<stop offset="0.99" stop-color="#754C24"/>
</linearGradient>
</defs>
</svg>
