<svg width="194" height="139" viewBox="0 0 194 139" fill="none" xmlns="http://www.w3.org/2000/svg">
<path d="M94.61 136.845L4.75005 83.7129C1.89005 82.1073 -0.564952 79.4661 2.22505 77.7404L92.41 25.7186C93.7651 24.8783 95.82 24.328 97.195 25.1284L191.5 79.9063C194.36 81.567 194.875 86.209 192 87.8747L106.455 136.76C104.658 137.803 102.621 138.359 100.544 138.374C98.4667 138.389 96.4215 137.862 94.61 136.845Z" fill="url(#paint0_linear_723_1810)"/>
<path style="mix-blend-mode:multiply" opacity="0.63" d="M140.465 117.392C148.465 112.565 156.425 108.253 164.505 103.611C156.565 98.244 152.55 96.4732 146.47 92.7167L100.645 118.953L117.835 130.267C125.405 126.321 133.15 121.819 140.465 117.392Z" fill="url(#paint1_linear_723_1810)"/>
<path d="M40.79 82.6425V84.6133L41.79 85.8388" fill="#ADCEE1"/>
<path d="M80.4251 58.6174L41.9251 82.4924C41.5726 82.7103 41.2829 83.0164 41.0846 83.3805C40.8864 83.7446 40.7863 84.1541 40.7944 84.5686C40.8025 84.9831 40.9184 85.3884 41.1307 85.7444C41.343 86.1005 41.6444 86.3951 42.0051 86.5991L100.435 119.663C101.252 120.125 102.176 120.364 103.114 120.356C104.052 120.348 104.971 120.094 105.78 119.618L144.11 97.0785C146.895 94.7875 146.685 90.4807 144.11 90.3007L86.0001 58.5223C85.1491 58.0325 84.1812 57.7826 83.1995 57.7993C82.2178 57.816 81.259 58.0988 80.4251 58.6174Z" fill="#88D3D8"/>
<path d="M80.4252 56.9717L41.9251 80.8467C41.5726 81.0647 41.2829 81.3708 41.0846 81.7348C40.8864 82.0989 40.7863 82.5084 40.7944 82.9229C40.8025 83.3374 40.9184 83.7427 41.1307 84.0988C41.343 84.4548 41.6444 84.7494 42.0051 84.9534L100.435 118.017C101.252 118.479 102.176 118.718 103.114 118.71C104.052 118.703 104.971 118.448 105.78 117.972L144.11 95.4128C144.559 95.1514 144.932 94.7766 145.192 94.3259C145.451 93.8752 145.587 93.3643 145.587 92.8443C145.587 92.3242 145.451 91.8133 145.192 91.3626C144.932 90.9119 144.559 90.5371 144.11 90.2757L86.0001 56.8967C85.1509 56.4038 84.184 56.1505 83.2023 56.1637C82.2206 56.1769 81.2608 56.4562 80.4252 56.9717Z" fill="white"/>
<path d="M82.0001 53.7103C82.0001 53.7103 98.0001 2.07869 97.8851 2.07869C97.7701 2.07869 98.3851 -0.217275 101.24 1.07827L162.605 37.2184C162.605 37.2184 165.605 38.4239 165 41.2201C164.395 44.0163 149.37 91.7413 149.37 91.7413C149.056 92.1947 148.605 92.5362 148.084 92.7161C147.562 92.896 146.997 92.9049 146.47 92.7417C144.6 92.1615 83.4301 56.6166 83.4301 56.6166C83.4301 56.6166 81.3951 55.8312 82.0001 53.7103Z" fill="#5A5A5A"/>
<path d="M98.9049 5.83026L161.745 42.4806L148.71 86.259L85.0649 50.6991L98.9049 5.83026Z" fill="#D55A5F"/>
<path d="M78.0599 62.444L64 71.2177C63.7511 71.3735 63.5468 71.5911 63.407 71.8494C63.2672 72.1077 63.1967 72.3977 63.2022 72.6914C63.2077 72.985 63.2892 73.2722 63.4386 73.525C63.5881 73.7778 63.8004 73.9876 64.055 74.1339L114.585 102.951C115.34 103.386 116.196 103.616 117.067 103.616C117.939 103.616 118.795 103.386 119.55 102.951C122.8 101.055 128.39 97.6438 131.815 95.5479C132.121 95.3614 132.373 95.0986 132.546 94.7853C132.72 94.472 132.809 94.1189 132.805 93.7608C132.801 93.4026 132.704 93.0516 132.523 92.7423C132.343 92.433 132.085 92.1759 131.775 91.9964C121.54 86.0339 88.2 66.6358 80.9 62.399C80.4673 62.1472 79.9742 62.0184 79.4737 62.0263C78.9732 62.0342 78.4844 62.1786 78.0599 62.444Z" fill="white"/>
<path d="M78.815 86.259L96.47 96.1881C96.7403 96.3407 96.9656 96.5619 97.1232 96.8293C97.2808 97.0968 97.3651 97.4011 97.3676 97.7116C97.3702 98.022 97.2908 98.3277 97.1376 98.5977C96.9844 98.8677 96.7628 99.0925 96.495 99.2494L86.115 105.327C85.7585 105.533 85.3541 105.641 84.9425 105.641C84.5309 105.641 84.1265 105.533 83.77 105.327L65.705 95.0227C65.4857 94.8886 65.3045 94.7005 65.1788 94.4762C65.0531 94.252 64.9871 93.9992 64.9871 93.7421C64.9871 93.485 65.0531 93.2322 65.1788 93.008C65.3045 92.7838 65.4857 92.5956 65.705 92.4616L76.5 86.269C76.852 86.0671 77.2504 85.96 77.6562 85.9583C78.062 85.9565 78.4613 86.0601 78.815 86.259Z" fill="white"/>
<path opacity="0.1" d="M78.0599 62.444L64 71.2177C63.7511 71.3735 63.5468 71.5911 63.407 71.8494C63.2672 72.1077 63.1967 72.3977 63.2022 72.6914C63.2077 72.985 63.2892 73.2722 63.4386 73.525C63.5881 73.7778 63.8004 73.9876 64.055 74.1339L114.585 102.951C115.34 103.386 116.196 103.616 117.067 103.616C117.939 103.616 118.795 103.386 119.55 102.951C122.8 101.055 128.39 97.6438 131.815 95.5479C132.121 95.3614 132.373 95.0986 132.546 94.7853C132.72 94.472 132.809 94.1189 132.805 93.7608C132.801 93.4026 132.704 93.0516 132.523 92.7423C132.343 92.433 132.085 92.1759 131.775 91.9964C121.54 86.0339 88.2 66.6358 80.9 62.399C80.4673 62.1472 79.9742 62.0184 79.4737 62.0263C78.9732 62.0342 78.4844 62.1786 78.0599 62.444Z" fill="#053855"/>
<path opacity="0.1" d="M78.815 86.259L96.47 96.1881C96.7403 96.3407 96.9656 96.5619 97.1232 96.8293C97.2808 97.0968 97.3651 97.4011 97.3676 97.7116C97.3702 98.022 97.2908 98.3277 97.1376 98.5977C96.9844 98.8677 96.7628 99.0925 96.495 99.2494L86.115 105.327C85.7585 105.533 85.3541 105.641 84.9425 105.641C84.5309 105.641 84.1265 105.533 83.77 105.327L65.705 95.0227C65.4857 94.8886 65.3045 94.7005 65.1788 94.4762C65.0531 94.252 64.9871 93.9992 64.9871 93.7421C64.9871 93.485 65.0531 93.2322 65.1788 93.008C65.3045 92.7838 65.4857 92.5956 65.705 92.4616L76.5 86.269C76.852 86.0671 77.2504 85.96 77.6562 85.9583C78.062 85.9565 78.4613 86.0601 78.815 86.259Z" fill="#053855"/>
<path d="M85.4252 36.6582C85.4252 36.6582 78.2902 36.4181 80.3002 27.8845C79.6402 29.5252 78.3002 31.5961 75.7502 31.6811C73.2002 31.7661 71.7002 29.6803 70.9152 27.9646C71.5652 30.0504 72.2202 33.0917 70.9152 34.0271C68.8652 35.4927 65.7852 35.9329 65.7852 35.9329C65.7852 35.9329 71.2851 35.9879 71.3251 38.1338C71.3651 40.2797 70.2551 42.8308 70.2551 42.8308C70.2551 42.8308 76.7802 38.1238 79.6352 43.4861C79.6352 43.4811 78.4002 37.3885 85.4252 36.6582Z" fill="#E99A53"/>
<path d="M79.0899 35.6778C79.0899 35.6778 36.9999 45.742 37.4999 66.5607C37.9999 87.3795 55.7549 84.0231 55.7549 84.0231C55.7549 84.0231 36.3799 85.5837 33.1499 71.5178C29.9199 57.4519 48.8799 37.2935 79.0899 35.6778Z" fill="#E99A53"/>
<g opacity="0.5">
<path d="M140.91 44.8616L107.41 25.1834C103.91 23.1125 101.73 29.3251 105.63 31.486C117.495 38.464 129.09 45.1518 140.89 52.0547L140.91 44.8616Z" fill="white"/>
</g>
<path d="M148.25 49.1784L140.91 44.8616L138.695 50.7641L146.115 55.1109C149.635 57.1768 151.77 51.2443 148.25 49.1784Z" fill="#EAACAF"/>
<path opacity="0.53" d="M95.0751 32.0763L90.7651 46.0522L100.585 51.4644L105.205 37.9838L95.0751 32.0763Z" fill="white"/>
<path opacity="0.53" d="M108.38 39.9196L104.065 53.8904L113.89 59.3027L118.51 45.822L108.38 39.9196Z" fill="white"/>
<path opacity="0.53" d="M122.6 48.108L118.29 62.0838L128.11 67.4961L132.73 54.0154L122.6 48.108Z" fill="white"/>
<path d="M82.0001 74.8392C82.0001 74.8392 64.8901 75.9046 53.6401 92.0114C53.6401 92.0114 65.7701 100.965 90.5151 94.2723" fill="#EB773A"/>
<path d="M105.82 86.0789C105.82 86.0789 101.595 92.5366 98.5151 93.2219C95.4351 93.9072 85.4451 96.1681 85.4451 96.1681L84.9451 93.9772C84.9451 93.9772 94.2251 87.1694 96.9451 83.5479C99.6651 79.9263 105.82 86.0789 105.82 86.0789Z" fill="white"/>
<path opacity="0.61" d="M105.82 86.0789C105.82 86.0789 101.595 92.5366 98.5151 93.2219C95.4351 93.9072 85.4451 96.1681 85.4451 96.1681L84.9451 93.9772C84.9451 93.9772 94.2251 87.1694 96.9451 83.5479C99.6651 79.9263 105.82 86.0789 105.82 86.0789Z" fill="#363636"/>
<path d="M102.865 72.9384C102.865 72.9384 96.28 68.9367 93.205 69.617C90.13 70.2973 80.135 72.5632 80.135 72.5632L80.635 74.7541C80.635 74.7541 91.94 76.925 95.965 79.0209C99.99 81.1168 102.865 72.9384 102.865 72.9384Z" fill="white"/>
<path opacity="0.61" d="M102.865 72.9384C102.865 72.9384 96.28 68.9367 93.205 69.617C90.13 70.2973 80.135 72.5632 80.135 72.5632L80.635 74.7541C80.635 74.7541 91.94 76.925 95.965 79.0209C99.99 81.1168 102.865 72.9384 102.865 72.9384Z" fill="#363636"/>
<path d="M141.645 76.5049C144.798 74.4618 147.692 72.0449 150.265 69.3069C150.265 69.3069 146.195 67.5111 139.32 66.5557C138.395 69.8721 139.74 73.4586 141.645 76.5049Z" fill="white"/>
<path d="M119.714 81.6322C122.3 81.0491 123.86 78.1929 123.197 75.2527C122.535 72.3125 119.901 70.4016 117.315 70.9846C114.729 71.5677 113.17 74.4239 113.832 77.3641C114.494 80.3044 117.128 82.2152 119.714 81.6322Z" fill="white"/>
<path d="M169.36 64.855C169.36 64.855 126.905 56.9917 94.7501 76.2698C94.7501 76.2698 87.9701 79.0459 88.9601 82.7725C89.9501 86.4991 98.2351 87.6545 98.2351 87.6545C98.2351 87.6545 125.435 91.7563 169.36 64.855Z" fill="white"/>
<path d="M94.7551 76.2698C94.7551 76.2698 90.2151 73.4986 88.1001 73.9788L79.1001 76.0097L79.4401 77.5103C79.4401 77.5103 87.2301 79.0109 90.0001 80.4515C92.7701 81.8921 94.7551 76.2698 94.7551 76.2698Z" fill="white"/>
<path d="M97.0701 86.5491C97.0701 86.5491 94.1551 91.001 92.0351 91.4712L83.0351 93.502L82.6951 92.0014C82.6951 92.0014 89.0901 87.3094 90.9751 84.8134C92.8601 82.3173 97.0701 86.5491 97.0701 86.5491Z" fill="white"/>
<path opacity="0.29" d="M94.7551 76.2698C94.7551 76.2698 90.2151 73.4986 88.1001 73.9788L79.1001 76.0097L79.4401 77.5103C79.4401 77.5103 87.2301 79.0109 90.0001 80.4515C92.7701 81.8921 94.7551 76.2698 94.7551 76.2698Z" fill="#363636"/>
<path opacity="0.29" d="M97.0701 86.5491C97.0701 86.5491 94.1551 91.001 92.0351 91.4712L83.0351 93.502L82.6951 92.0014C82.6951 92.0014 89.0901 87.3094 90.9751 84.8134C92.8601 82.3173 97.0701 86.5491 97.0701 86.5491Z" fill="#363636"/>
<path d="M147.72 63.2693C147.72 63.2693 144.655 69.662 150.395 75.1593L144.395 77.8605C144.395 77.8605 138 69.1368 142.215 63.3994L147.72 63.2693Z" fill="white"/>
<path d="M116.43 67.0809C116.43 67.0809 111.54 78.0405 120.315 85.7888L110.395 87.5195C110.395 87.5195 101.185 78.7508 107.64 69.9571L116.43 67.0809Z" fill="white"/>
<path d="M135.566 73.8738C136.477 73.6685 137.048 72.7637 136.843 71.8528C136.638 70.9419 135.733 70.3699 134.823 70.5751C133.912 70.7804 133.341 71.6853 133.546 72.5962C133.751 73.5071 134.656 74.0791 135.566 73.8738Z" fill="white"/>
<path d="M126.481 78.7139C128.857 78.1783 130.349 75.8171 129.814 73.4401C129.278 71.0631 126.918 69.5704 124.542 70.1061C122.166 70.6418 120.674 73.003 121.21 75.38C121.745 77.7569 124.105 79.2496 126.481 78.7139Z" fill="white"/>
<path opacity="0.61" d="M147.72 63.2693C147.72 63.2693 144.655 69.662 150.395 75.1593L144.395 77.8605C144.395 77.8605 138 69.1368 142.215 63.3994L147.72 63.2693Z" fill="#606060"/>
<path opacity="0.61" d="M116.43 67.0809C116.43 67.0809 111.54 78.0405 120.315 85.7888L110.395 87.5195C110.395 87.5195 101.185 78.7508 107.64 69.9571L116.43 67.0809Z" fill="#606060"/>
<defs>
<linearGradient id="paint0_linear_723_1810" x1="97.4579" y1="24.7387" x2="97.4579" y2="138.375" gradientUnits="userSpaceOnUse">
<stop stop-color="#232323"/>
<stop offset="1" stop-color="#232323" stop-opacity="0"/>
</linearGradient>
<linearGradient id="paint1_linear_723_1810" x1="137.57" y1="122.419" x2="128.944" y2="103.199" gradientUnits="userSpaceOnUse">
<stop stop-color="white" stop-opacity="0"/>
<stop offset="1" stop-color="#297600"/>
</linearGradient>
</defs>
</svg>
