<svg width="200" height="152" viewBox="0 0 200 152" fill="none" xmlns="http://www.w3.org/2000/svg">
<path d="M16.5501 83.4111L84.3551 43.7083C84.8423 43.4251 85.395 43.2761 85.9576 43.2761C86.5202 43.2761 87.0729 43.4251 87.5601 43.7083L188.95 102.113C189.439 102.395 189.846 102.803 190.129 103.294C190.411 103.785 190.56 104.343 190.56 104.911C190.56 105.478 190.411 106.036 190.129 106.527C189.846 107.019 189.439 107.426 188.95 107.709L124.12 145.389C122.529 146.313 120.725 146.8 118.888 146.8C117.051 146.8 115.246 146.313 113.655 145.389L16.5601 88.9822C16.0761 88.6989 15.6744 88.2929 15.3948 87.8047C15.1152 87.3165 14.9676 86.7631 14.9666 86.1995C14.9655 85.636 15.1112 85.0821 15.389 84.5928C15.6669 84.1036 16.0672 83.6962 16.5501 83.4111Z" fill="url(#paint0_linear_723_1849)"/>
<path style="mix-blend-mode:multiply" opacity="0.63" d="M120.735 148.866C138.675 136.939 149.045 135.781 165.735 123.426C155.16 117.89 137.195 107.085 130.67 102.978L86.1951 129.123L119.89 148.876L120.735 148.866Z" fill="url(#paint1_linear_723_1849)"/>
<path d="M53.5852 110.96L92.5702 133.159L138.095 106.471V88.5294L92.5702 115.213L53.5852 92.787V110.96Z" fill="#4E4E4E"/>
<path d="M53.5852 92.787L99.9802 65.993L138.095 88.5293L92.5702 115.213L53.5852 92.787Z" fill="#828282"/>
<path d="M92.5701 115.213V133.159L138.095 106.471V88.5294L92.5701 115.213Z" fill="#6B6B6B"/>
<path d="M81.7651 40.1703V70.6683L120.825 88.5293L138.095 70.4268V52.2839" fill="white"/>
<path d="M120.425 62.7822V99.2943L138.095 88.5294V52.284L120.425 62.7822Z" fill="white"/>
<path opacity="0.15" d="M81.7651 40.1703V70.6683L120.425 88.3481V62.7821" fill="black"/>
<path d="M120.425 62.7821L138.095 52.284L99.5601 29.9892L81.7651 40.1703L120.425 62.7821Z" fill="white"/>
<path opacity="0.25" d="M120.425 62.7822V99.2943L138.095 88.5294V52.284L120.425 62.7822Z" fill="black"/>
<path d="M64.1001 68.8314V86.7528L103.16 109.123L120.425 99.0879V80.9451" fill="#D55A5F"/>
<path d="M102.76 91.4432L120.425 80.9451L81.8951 58.6553L64.1001 68.8314L102.76 91.4432Z" fill="#E28387"/>
<path d="M102.76 91.4432V109.123L138.095 88.5293V70.4268L102.76 91.4432Z" fill="#C04146"/>
<defs>
<linearGradient id="paint0_linear_723_1849" x1="102.763" y1="43.2761" x2="102.763" y2="146.8" gradientUnits="userSpaceOnUse">
<stop stop-color="#232323"/>
<stop offset="1" stop-color="#232323" stop-opacity="0"/>
</linearGradient>
<linearGradient id="paint1_linear_723_1849" x1="131.545" y1="135.696" x2="123.771" y2="122.756" gradientUnits="userSpaceOnUse">
<stop stop-opacity="0"/>
<stop offset="0.99" stop-color="#FFA86A"/>
</linearGradient>
</defs>
</svg>
