<svg width="39" height="31" viewBox="0 0 39 31" fill="none" xmlns="http://www.w3.org/2000/svg">
<path d="M23.9688 0.867188C24.9648 1.16016 25.5508 2.15625 25.2578 3.15234L17.7578 29.4023C17.4648 30.3984 16.4688 30.9844 15.4727 30.6914C14.4766 30.3984 13.8906 29.4023 14.1836 28.4062L21.6836 2.15625C21.9766 1.16016 22.9727 0.574219 23.9688 0.867188ZM28.7148 7.89844C29.418 7.13672 30.6484 7.13672 31.3516 7.89844L37.9141 14.4609C38.6758 15.1641 38.6758 16.3945 37.9141 17.0977L31.3516 23.6602C30.6484 24.4219 29.418 24.4219 28.7148 23.6602C27.9531 22.957 27.9531 21.7266 28.7148 21.0234L33.9297 15.75L28.7148 10.5352C27.9531 9.83203 27.9531 8.60156 28.7148 7.89844ZM10.7266 7.89844C11.4883 8.60156 11.4883 9.83203 10.7266 10.5352L5.51172 15.75L10.7266 21.0234C11.4883 21.7266 11.4883 22.957 10.7266 23.6602C10.0234 24.4219 8.79297 24.4219 8.08984 23.6602L1.52734 17.0977C0.765625 16.3945 0.765625 15.1641 1.52734 14.4609L8.08984 7.89844C8.79297 7.13672 10.0234 7.13672 10.7266 7.89844Z" fill="white"/>
</svg>
